<?xml version="1.0" standalone="no"?>
<!DOCTYPE svg PUBLIC "-//W3C//DTD SVG 20010904//EN"
 "http://www.w3.org/TR/2001/REC-SVG-20010904/DTD/svg10.dtd">
<svg version="1.0" xmlns="http://www.w3.org/2000/svg"
 width="128.000000pt" height="128.000000pt" viewBox="0 0 128.000000 128.000000"
 preserveAspectRatio="xMidYMid meet">
<metadata>
Created by potrace 1.14, written by Peter Selinger 2001-2017
</metadata>
<g transform="translate(0.000000,128.000000) scale(0.100000,-0.100000)"
fill="#000000" stroke="none">
<path d="M482 1244 c-162 -35 -318 -152 -409 -305 -87 -147 -97 -403 -20 -554
43 -86 139 -194 213 -241 16 -10 39 -28 51 -40 51 -48 127 -67 289 -72 93 -2
173 0 205 7 56 12 184 69 175 78 -3 3 14 18 37 33 60 38 157 146 194 216 49
92 66 178 60 309 -2 67 -11 130 -21 160 -68 196 -261 368 -461 410 -86 18
-229 18 -313 -1z m596 -361 c69 -32 109 -104 118 -216 12 -137 -25 -261 -112
-384 -80 -112 -192 -186 -331 -219 -261 -62 -591 134 -658 391 -19 76 -19 194
0 270 33 125 105 182 217 172 102 -9 169 -76 203 -201 16 -59 16 -66 1 -87
-35 -51 -14 -140 48 -199 29 -27 45 -35 76 -35 31 0 47 8 76 35 65 62 92 152
59 196 -45 59 16 231 99 276 53 29 142 29 204 1z"/>
<path d="M918 822 c-39 -26 -69 -67 -84 -119 -25 -84 -16 -121 26 -108 16 5
20 15 20 48 0 79 68 158 120 142 35 -11 72 -71 79 -127 5 -45 9 -53 29 -56 31
-5 37 19 22 86 -10 46 -21 66 -60 105 -40 40 -53 47 -86 47 -21 0 -51 -8 -66
-18z"/>
<path d="M244 791 c-62 -38 -104 -118 -104 -199 0 -30 2 -33 28 -30 25 3 27 7
33 59 7 65 32 107 73 124 59 25 111 -27 125 -124 5 -41 9 -46 34 -49 23 -3 27
0 27 21 0 42 -30 125 -56 157 -51 60 -106 74 -160 41z"/>
</g>
</svg>
